<?xml version="1.0" encoding="UTF-8" standalone="no"?>
<!DOCTYPE svg PUBLIC "-//W3C//DTD SVG 1.1//EN"
 "http://www.w3.org/Graphics/SVG/1.1/DTD/svg11.dtd">
<!-- Generated by graphviz version 14.1.1 (20251213.1925)
 -->
<!-- Title: InheritanceTree Pages: 1 -->
<svg width="404pt" height="573pt"
 viewBox="0.00 0.00 404.00 573.00" xmlns="http://www.w3.org/2000/svg" xmlns:xlink="http://www.w3.org/1999/xlink">
<g id="graph0" class="graph" transform="scale(1 1) rotate(0) translate(4 568.5)">
<title>InheritanceTree</title>
<polygon fill="white" stroke="none" points="-4,4 -4,-568.5 399.75,-568.5 399.75,4 -4,4"/>
<text xml:space="preserve" text-anchor="middle" x="197.88" y="-7.2" font-family="Times New Roman,serif" font-size="14.00">simple_setup &#45; Inheritance Hierarchy</text>
<!-- SST_APPLICATION -->
<g id="node1" class="node">
<title>SST_APPLICATION</title>
<path fill="none" stroke="black" d="M137.88,-60.5C137.88,-60.5 28.88,-60.5 28.88,-60.5 22.88,-60.5 16.88,-54.5 16.88,-48.5 16.88,-48.5 16.88,-36.5 16.88,-36.5 16.88,-30.5 22.88,-24.5 28.88,-24.5 28.88,-24.5 137.88,-24.5 137.88,-24.5 143.88,-24.5 149.88,-30.5 149.88,-36.5 149.88,-36.5 149.88,-48.5 149.88,-48.5 149.88,-54.5 143.88,-60.5 137.88,-60.5"/>
<text xml:space="preserve" text-anchor="middle" x="83.38" y="-37.45" font-family="Times New Roman,serif" font-size="14.00">SST_APPLICATION</text>
</g>
<!-- ARGUMENTS_32 -->
<g id="node2" class="node">
<title>ARGUMENTS_32</title>
<path fill="none" stroke="black" d="M383.75,-60.5C383.75,-60.5 286.75,-60.5 286.75,-60.5 280.75,-60.5 274.75,-54.5 274.75,-48.5 274.75,-48.5 274.75,-36.5 274.75,-36.5 274.75,-30.5 280.75,-24.5 286.75,-24.5 286.75,-24.5 383.75,-24.5 383.75,-24.5 389.75,-24.5 395.75,-30.5 395.75,-36.5 395.75,-36.5 395.75,-48.5 395.75,-48.5 395.75,-54.5 389.75,-60.5 383.75,-60.5"/>
<text xml:space="preserve" text-anchor="middle" x="335.25" y="-37.45" font-family="Times New Roman,serif" font-size="14.00">ARGUMENTS_32</text>
</g>
<!-- SST_APPLICATION&#45;&gt;ARGUMENTS_32 -->
<g id="edge1" class="edge">
<title>SST_APPLICATION&#45;&gt;ARGUMENTS_32</title>
<path fill="none" stroke="black" d="M150.21,-42.5C150.21,-42.5 263.06,-42.5 263.06,-42.5"/>
<polygon fill="none" stroke="black" points="263.06,-46 273.06,-42.5 263.06,-39 263.06,-46"/>
</g>
<!-- SST_ENV_MANAGER -->
<g id="node3" class="node">
<title>SST_ENV_MANAGER</title>
<path fill="none" stroke="black" d="M146.12,-132.5C146.12,-132.5 20.62,-132.5 20.62,-132.5 14.62,-132.5 8.62,-126.5 8.62,-120.5 8.62,-120.5 8.62,-108.5 8.62,-108.5 8.62,-102.5 14.62,-96.5 20.62,-96.5 20.62,-96.5 146.12,-96.5 146.12,-96.5 152.12,-96.5 158.12,-102.5 158.12,-108.5 158.12,-108.5 158.12,-120.5 158.12,-120.5 158.12,-126.5 152.12,-132.5 146.12,-132.5"/>
<text xml:space="preserve" text-anchor="middle" x="83.38" y="-109.45" font-family="Times New Roman,serif" font-size="14.00">SST_ENV_MANAGER</text>
</g>
<!-- SIMPLE_ENV -->
<g id="node4" class="node">
<title>SIMPLE_ENV</title>
<path fill="none" stroke="black" d="M372.88,-132.5C372.88,-132.5 297.62,-132.5 297.62,-132.5 291.62,-132.5 285.62,-126.5 285.62,-120.5 285.62,-120.5 285.62,-108.5 285.62,-108.5 285.62,-102.5 291.62,-96.5 297.62,-96.5 297.62,-96.5 372.88,-96.5 372.88,-96.5 378.88,-96.5 384.88,-102.5 384.88,-108.5 384.88,-108.5 384.88,-120.5 384.88,-120.5 384.88,-126.5 378.88,-132.5 372.88,-132.5"/>
<text xml:space="preserve" text-anchor="middle" x="335.25" y="-109.45" font-family="Times New Roman,serif" font-size="14.00">SIMPLE_ENV</text>
</g>
<!-- SST_ENV_MANAGER&#45;&gt;SIMPLE_ENV -->
<g id="edge2" class="edge">
<title>SST_ENV_MANAGER&#45;&gt;SIMPLE_ENV</title>
<path fill="none" stroke="black" d="M158.6,-114.5C158.6,-114.5 273.95,-114.5 273.95,-114.5"/>
<polygon fill="none" stroke="black" points="273.95,-118 283.95,-114.5 273.95,-111 273.95,-118"/>
</g>
<!-- SST_INNO_GENERATOR -->
<g id="node5" class="node">
<title>SST_INNO_GENERATOR</title>
<path fill="none" stroke="black" d="M154.75,-204.5C154.75,-204.5 12,-204.5 12,-204.5 6,-204.5 0,-198.5 0,-192.5 0,-192.5 0,-180.5 0,-180.5 0,-174.5 6,-168.5 12,-168.5 12,-168.5 154.75,-168.5 154.75,-168.5 160.75,-168.5 166.75,-174.5 166.75,-180.5 166.75,-180.5 166.75,-192.5 166.75,-192.5 166.75,-198.5 160.75,-204.5 154.75,-204.5"/>
<text xml:space="preserve" text-anchor="middle" x="83.38" y="-181.45" font-family="Times New Roman,serif" font-size="14.00">SST_INNO_GENERATOR</text>
</g>
<!-- SST_INSTALLER -->
<g id="node6" class="node">
<title>SST_INSTALLER</title>
<path fill="none" stroke="black" d="M130.75,-276.5C130.75,-276.5 36,-276.5 36,-276.5 30,-276.5 24,-270.5 24,-264.5 24,-264.5 24,-252.5 24,-252.5 24,-246.5 30,-240.5 36,-240.5 36,-240.5 130.75,-240.5 130.75,-240.5 136.75,-240.5 142.75,-246.5 142.75,-252.5 142.75,-252.5 142.75,-264.5 142.75,-264.5 142.75,-270.5 136.75,-276.5 130.75,-276.5"/>
<text xml:space="preserve" text-anchor="middle" x="83.38" y="-253.45" font-family="Times New Roman,serif" font-size="14.00">SST_INSTALLER</text>
</g>
<!-- SST_LIBRARY_INFO -->
<g id="node7" class="node">
<title>SST_LIBRARY_INFO</title>
<path fill="none" stroke="black" d="M142.75,-348.5C142.75,-348.5 24,-348.5 24,-348.5 18,-348.5 12,-342.5 12,-336.5 12,-336.5 12,-324.5 12,-324.5 12,-318.5 18,-312.5 24,-312.5 24,-312.5 142.75,-312.5 142.75,-312.5 148.75,-312.5 154.75,-318.5 154.75,-324.5 154.75,-324.5 154.75,-336.5 154.75,-336.5 154.75,-342.5 148.75,-348.5 142.75,-348.5"/>
<text xml:space="preserve" text-anchor="middle" x="83.38" y="-325.45" font-family="Times New Roman,serif" font-size="14.00">SST_LIBRARY_INFO</text>
</g>
<!-- SST_MANIFEST -->
<g id="node8" class="node">
<title>SST_MANIFEST</title>
<path fill="none" stroke="black" d="M128.5,-420.5C128.5,-420.5 38.25,-420.5 38.25,-420.5 32.25,-420.5 26.25,-414.5 26.25,-408.5 26.25,-408.5 26.25,-396.5 26.25,-396.5 26.25,-390.5 32.25,-384.5 38.25,-384.5 38.25,-384.5 128.5,-384.5 128.5,-384.5 134.5,-384.5 140.5,-390.5 140.5,-396.5 140.5,-396.5 140.5,-408.5 140.5,-408.5 140.5,-414.5 134.5,-420.5 128.5,-420.5"/>
<text xml:space="preserve" text-anchor="middle" x="83.38" y="-397.45" font-family="Times New Roman,serif" font-size="14.00">SST_MANIFEST</text>
</g>
<!-- LIB_TESTS -->
<g id="node9" class="node">
<title>LIB_TESTS</title>
<path fill="none" stroke="black" d="M113.5,-492.5C113.5,-492.5 53.25,-492.5 53.25,-492.5 47.25,-492.5 41.25,-486.5 41.25,-480.5 41.25,-480.5 41.25,-468.5 41.25,-468.5 41.25,-462.5 47.25,-456.5 53.25,-456.5 53.25,-456.5 113.5,-456.5 113.5,-456.5 119.5,-456.5 125.5,-462.5 125.5,-468.5 125.5,-468.5 125.5,-480.5 125.5,-480.5 125.5,-486.5 119.5,-492.5 113.5,-492.5"/>
<text xml:space="preserve" text-anchor="middle" x="83.38" y="-469.45" font-family="Times New Roman,serif" font-size="14.00">LIB_TESTS</text>
</g>
<!-- TEST_SET_BASE -->
<g id="node10" class="node">
<title>TEST_SET_BASE</title>
<path fill="none" stroke="black" d="M383.38,-492.5C383.38,-492.5 287.12,-492.5 287.12,-492.5 281.12,-492.5 275.12,-486.5 275.12,-480.5 275.12,-480.5 275.12,-468.5 275.12,-468.5 275.12,-462.5 281.12,-456.5 287.12,-456.5 287.12,-456.5 383.38,-456.5 383.38,-456.5 389.38,-456.5 395.38,-462.5 395.38,-468.5 395.38,-468.5 395.38,-480.5 395.38,-480.5 395.38,-486.5 389.38,-492.5 383.38,-492.5"/>
<text xml:space="preserve" text-anchor="middle" x="335.25" y="-469.45" font-family="Times New Roman,serif" font-size="14.00">TEST_SET_BASE</text>
</g>
<!-- LIB_TESTS&#45;&gt;TEST_SET_BASE -->
<g id="edge3" class="edge">
<title>LIB_TESTS&#45;&gt;TEST_SET_BASE</title>
<path fill="none" stroke="black" d="M125.82,-474.5C125.82,-474.5 263.17,-474.5 263.17,-474.5"/>
<polygon fill="none" stroke="black" points="263.17,-478 273.17,-474.5 263.17,-471 263.17,-478"/>
</g>
<!-- TEST_APP -->
<g id="node11" class="node">
<title>TEST_APP</title>
<path fill="none" stroke="black" d="M111.25,-564.5C111.25,-564.5 55.5,-564.5 55.5,-564.5 49.5,-564.5 43.5,-558.5 43.5,-552.5 43.5,-552.5 43.5,-540.5 43.5,-540.5 43.5,-534.5 49.5,-528.5 55.5,-528.5 55.5,-528.5 111.25,-528.5 111.25,-528.5 117.25,-528.5 123.25,-534.5 123.25,-540.5 123.25,-540.5 123.25,-552.5 123.25,-552.5 123.25,-558.5 117.25,-564.5 111.25,-564.5"/>
<text xml:space="preserve" text-anchor="middle" x="83.38" y="-541.45" font-family="Times New Roman,serif" font-size="14.00">TEST_APP</text>
</g>
</g>
</svg>
