<?xml version="1.0" encoding="UTF-8" standalone="no"?>
<!DOCTYPE svg PUBLIC "-//W3C//DTD SVG 1.1//EN"
 "http://www.w3.org/Graphics/SVG/1.1/DTD/svg11.dtd">
<!-- Generated by graphviz version 14.1.1 (20251213.1925)
 -->
<!-- Title: ContractCoverage Pages: 1 -->
<svg width="816pt" height="841pt"
 viewBox="48.00 48.00 768.00 793.00" xmlns="http://www.w3.org/2000/svg" xmlns:xlink="http://www.w3.org/1999/xlink">
<g id="graph0" class="graph" transform="scale(0.614793 0.614793) rotate(0) translate(82.08 1285.7)">
<title>ContractCoverage</title>
<polygon fill="white" stroke="none" points="-4,4 -4,-1207.62 1167.12,-1207.62 1167.12,4 -4,4"/>
<text xml:space="preserve" text-anchor="middle" x="581.56" y="-1190.12" font-family="Times New Roman,serif" font-size="10.00">simple_setup &#45; Contract Coverage</text>
<g id="clust1" class="cluster">
<title>cluster_SST_APPLICATION</title>
<polygon fill="white" stroke="black" points="480.25,-799.88 480.25,-1094.38 752.5,-1094.38 752.5,-799.88 480.25,-799.88"/>
<text xml:space="preserve" text-anchor="middle" x="616.38" y="-1077.08" font-family="Times New Roman,serif" font-size="14.00">SST_APPLICATION</text>
</g>
<g id="clust2" class="cluster">
<title>cluster_SST_ENV_MANAGER</title>
<polygon fill="white" stroke="black" points="831.62,-192.38 831.62,-525.88 1163.12,-525.88 1163.12,-192.38 831.62,-192.38"/>
<text xml:space="preserve" text-anchor="middle" x="997.38" y="-508.57" font-family="Times New Roman,serif" font-size="14.00">SST_ENV_MANAGER</text>
</g>
<g id="clust3" class="cluster">
<title>cluster_SST_INNO_GENERATOR</title>
<polygon fill="white" stroke="black" points="320.31,-255.88 320.31,-724.38 770.44,-724.38 770.44,-255.88 320.31,-255.88"/>
<text xml:space="preserve" text-anchor="middle" x="545.37" y="-707.08" font-family="Times New Roman,serif" font-size="14.00">SST_INNO_GENERATOR</text>
</g>
<g id="clust4" class="cluster">
<title>cluster_SST_INSTALLER</title>
<polygon fill="white" stroke="black" points="831.94,-607.87 831.94,-950.37 1144.81,-950.37 1144.81,-607.87 831.94,-607.87"/>
<text xml:space="preserve" text-anchor="middle" x="988.38" y="-933.07" font-family="Times New Roman,serif" font-size="14.00">SST_INSTALLER</text>
</g>
<g id="clust5" class="cluster">
<title>cluster_SST_LIBRARY_INFO</title>
<polygon fill="white" stroke="black" points="128.37,-895.87 128.37,-1184.38 404.37,-1184.38 404.37,-895.87 128.37,-895.87"/>
<text xml:space="preserve" text-anchor="middle" x="266.37" y="-1167.08" font-family="Times New Roman,serif" font-size="14.00">SST_LIBRARY_INFO</text>
</g>
<g id="clust6" class="cluster">
<title>cluster_SST_MANIFEST</title>
<polygon fill="white" stroke="black" points="0,-479.88 0,-786.38 242.75,-786.38 242.75,-479.88 0,-479.88"/>
<text xml:space="preserve" text-anchor="middle" x="121.37" y="-769.08" font-family="Times New Roman,serif" font-size="14.00">SST_MANIFEST</text>
</g>
<g id="clust7" class="cluster">
<title>cluster_LIB_TESTS</title>
<polygon fill="white" stroke="black" points="319.88,-127.87 319.88,-188.37 416.88,-188.37 416.88,-127.87 319.88,-127.87"/>
<text xml:space="preserve" text-anchor="middle" x="368.38" y="-171.07" font-family="Times New Roman,serif" font-size="14.00">LIB_TESTS</text>
</g>
<g id="clust8" class="cluster">
<title>cluster_TEST_APP</title>
<polygon fill="white" stroke="black" points="31.87,-192.38 31.87,-417.88 250.87,-417.88 250.87,-192.38 31.87,-192.38"/>
<text xml:space="preserve" text-anchor="middle" x="141.37" y="-400.57" font-family="Times New Roman,serif" font-size="14.00">TEST_APP</text>
</g>
<g id="clust9" class="cluster">
<title>cluster_legend</title>
<polygon fill="lightyellow" stroke="black" points="544,0 544,-188.25 756.75,-188.25 756.75,0 544,0"/>
<text xml:space="preserve" text-anchor="middle" x="650.38" y="-174.75" font-family="Times New Roman,serif" font-size="10.00">Legend</text>
</g>
<!-- SST_APPLICATION_make -->
<g id="node1" class="node">
<title>SST_APPLICATION_make</title>
<polygon fill="lightcoral" stroke="black" points="732.25,-835.88 678.25,-835.88 678.25,-799.88 732.25,-799.88 732.25,-835.88"/>
<text xml:space="preserve" text-anchor="middle" x="705.25" y="-814" font-family="Times New Roman,serif" font-size="10.00">make</text>
</g>
<!-- SST_APPLICATION_console -->
<g id="node2" class="node">
<title>SST_APPLICATION_console</title>
<polygon fill="lightgray" stroke="black" points="594.25,-1069.88 540.25,-1069.88 540.25,-1033.88 594.25,-1033.88 594.25,-1069.88"/>
<text xml:space="preserve" text-anchor="middle" x="567.25" y="-1048" font-family="Times New Roman,serif" font-size="10.00">console</text>
</g>
<!-- SST_APPLICATION_manifest -->
<g id="node3" class="node">
<title>SST_APPLICATION_manifest</title>
<polygon fill="lightgray" stroke="black" points="672.25,-1069.88 618.25,-1069.88 618.25,-1033.88 672.25,-1033.88 672.25,-1069.88"/>
<text xml:space="preserve" text-anchor="middle" x="645.25" y="-1048" font-family="Times New Roman,serif" font-size="10.00">manifest</text>
</g>
<!-- SST_APPLICATION_installer -->
<g id="node4" class="node">
<title>SST_APPLICATION_installer</title>
<polygon fill="lightgray" stroke="black" points="534.25,-949.88 480.25,-949.88 480.25,-913.88 534.25,-913.88 534.25,-949.88"/>
<text xml:space="preserve" text-anchor="middle" x="507.25" y="-928" font-family="Times New Roman,serif" font-size="10.00">installer</text>
</g>
<!-- SST_APPLICATION_env_manager -->
<g id="node5" class="node">
<title>SST_APPLICATION_env_manager</title>
<polygon fill="lightgray" stroke="black" points="706.63,-991.88 635.88,-991.88 635.88,-955.88 706.63,-955.88 706.63,-991.88"/>
<text xml:space="preserve" text-anchor="middle" x="671.25" y="-970" font-family="Times New Roman,serif" font-size="10.00">env_manager</text>
</g>
<!-- SST_APPLICATION_inno_generator -->
<g id="node6" class="node">
<title>SST_APPLICATION_inno_generator</title>
<polygon fill="lightgray" stroke="black" points="636.38,-931.88 558.12,-931.88 558.12,-895.88 636.38,-895.88 636.38,-931.88"/>
<text xml:space="preserve" text-anchor="middle" x="597.25" y="-910" font-family="Times New Roman,serif" font-size="10.00">inno_generator</text>
</g>
<!-- SST_APPLICATION_print_line -->
<g id="node7" class="node">
<title>SST_APPLICATION_print_line</title>
<polygon fill="lightcoral" stroke="black" points="752.5,-1051.88 696,-1051.88 696,-1015.88 752.5,-1015.88 752.5,-1051.88"/>
<text xml:space="preserve" text-anchor="middle" x="724.25" y="-1030" font-family="Times New Roman,serif" font-size="10.00">print_line</text>
</g>
<!-- SST_APPLICATION_print_error -->
<g id="node8" class="node">
<title>SST_APPLICATION_print_error</title>
<polygon fill="lightcoral" stroke="black" points="575,-871.88 515.5,-871.88 515.5,-835.88 575,-835.88 575,-871.88"/>
<text xml:space="preserve" text-anchor="middle" x="545.25" y="-850" font-family="Times New Roman,serif" font-size="10.00">print_error</text>
</g>
<!-- SST_APPLICATION_print_success -->
<g id="node9" class="node">
<title>SST_APPLICATION_print_success</title>
<polygon fill="lightcoral" stroke="black" points="616.63,-1009.88 545.88,-1009.88 545.88,-973.88 616.63,-973.88 616.63,-1009.88"/>
<text xml:space="preserve" text-anchor="middle" x="581.25" y="-988" font-family="Times New Roman,serif" font-size="10.00">print_success</text>
</g>
<!-- SST_APPLICATION_command -->
<g id="node10" class="node">
<title>SST_APPLICATION_command</title>
<polygon fill="lightgray" stroke="black" points="655.12,-835.88 599.38,-835.88 599.38,-799.88 655.12,-799.88 655.12,-835.88"/>
<text xml:space="preserve" text-anchor="middle" x="627.25" y="-814" font-family="Times New Roman,serif" font-size="10.00">command</text>
</g>
<!-- SST_APPLICATION_make_empty -->
<g id="node11" class="node">
<title>SST_APPLICATION_make_empty</title>
<polygon fill="lightgray" stroke="black" points="728.5,-895.88 660,-895.88 660,-859.88 728.5,-859.88 728.5,-895.88"/>
<text xml:space="preserve" text-anchor="middle" x="694.25" y="-874" font-family="Times New Roman,serif" font-size="10.00">make_empty</text>
</g>
<!-- SST_ENV_MANAGER_make -->
<g id="node12" class="node">
<title>SST_ENV_MANAGER_make</title>
<polygon fill="lightcoral" stroke="black" points="885.62,-228.38 831.62,-228.38 831.62,-192.38 885.62,-192.38 885.62,-228.38"/>
<text xml:space="preserve" text-anchor="middle" x="858.62" y="-206.5" font-family="Times New Roman,serif" font-size="10.00">make</text>
</g>
<!-- SST_ENV_MANAGER_last_error -->
<g id="node13" class="node">
<title>SST_ENV_MANAGER_last_error</title>
<polygon fill="lightgray" stroke="black" points="1039.75,-501.38 985.5,-501.38 985.5,-465.38 1039.75,-465.38 1039.75,-501.38"/>
<text xml:space="preserve" text-anchor="middle" x="1012.62" y="-479.5" font-family="Times New Roman,serif" font-size="10.00">last_error</text>
</g>
<!-- SST_ENV_MANAGER_set_library_env -->
<g id="node14" class="node">
<title>SST_ENV_MANAGER_set_library_env</title>
<polygon fill="lightcoral" stroke="black" points="1043.5,-228.38 963.75,-228.38 963.75,-192.38 1043.5,-192.38 1043.5,-228.38"/>
<text xml:space="preserve" text-anchor="middle" x="1003.62" y="-206.5" font-family="Times New Roman,serif" font-size="10.00">set_library_env</text>
</g>
<!-- SST_ENV_MANAGER_get_library_env -->
<g id="node15" class="node">
<title>SST_ENV_MANAGER_get_library_env</title>
<polygon fill="lightcoral" stroke="black" points="1150.25,-228.38 1069,-228.38 1069,-192.38 1150.25,-192.38 1150.25,-228.38"/>
<text xml:space="preserve" text-anchor="middle" x="1109.62" y="-206.5" font-family="Times New Roman,serif" font-size="10.00">get_library_env</text>
</g>
<!-- SST_ENV_MANAGER_set_user_env_persistent -->
<g id="node16" class="node">
<title>SST_ENV_MANAGER_set_user_env_persistent</title>
<polygon fill="lightcoral" stroke="black" points="1077.38,-284.38 963.88,-284.38 963.88,-248.38 1077.38,-248.38 1077.38,-284.38"/>
<text xml:space="preserve" text-anchor="middle" x="1020.62" y="-262.5" font-family="Times New Roman,serif" font-size="10.00">set_user_env_persistent</text>
</g>
<!-- SST_ENV_MANAGER_get_user_env_persistent -->
<g id="node17" class="node">
<title>SST_ENV_MANAGER_get_user_env_persistent</title>
<polygon fill="lightcoral" stroke="black" points="1163.12,-340.38 1048.12,-340.38 1048.12,-304.38 1163.12,-304.38 1163.12,-340.38"/>
<text xml:space="preserve" text-anchor="middle" x="1105.62" y="-318.5" font-family="Times New Roman,serif" font-size="10.00">get_user_env_persistent</text>
</g>
<!-- SST_ENV_MANAGER_remove_user_env_persistent -->
<g id="node18" class="node">
<title>SST_ENV_MANAGER_remove_user_env_persistent</title>
<polygon fill="lightcoral" stroke="black" points="1026.75,-340.38 894.5,-340.38 894.5,-304.38 1026.75,-304.38 1026.75,-340.38"/>
<text xml:space="preserve" text-anchor="middle" x="960.62" y="-318.5" font-family="Times New Roman,serif" font-size="10.00">remove_user_env_persistent</text>
</g>
<!-- SST_ENV_MANAGER_set_all_library_envs -->
<g id="node19" class="node">
<title>SST_ENV_MANAGER_set_all_library_envs</title>
<polygon fill="lightcoral" stroke="black" points="979.25,-445.38 880,-445.38 880,-409.38 979.25,-409.38 979.25,-445.38"/>
<text xml:space="preserve" text-anchor="middle" x="929.62" y="-423.5" font-family="Times New Roman,serif" font-size="10.00">set_all_library_envs</text>
</g>
<!-- SST_ENV_MANAGER_generate_env_script -->
<g id="node20" class="node">
<title>SST_ENV_MANAGER_generate_env_script</title>
<polygon fill="lightcoral" stroke="black" points="1153.88,-452.38 1055.38,-452.38 1055.38,-416.38 1153.88,-416.38 1153.88,-452.38"/>
<text xml:space="preserve" text-anchor="middle" x="1104.62" y="-430.5" font-family="Times New Roman,serif" font-size="10.00">generate_env_script</text>
</g>
<!-- SST_ENV_MANAGER_generate_powershell_script -->
<g id="node21" class="node">
<title>SST_ENV_MANAGER_generate_powershell_script</title>
<polygon fill="lightcoral" stroke="black" points="1127.88,-396.38 999.38,-396.38 999.38,-360.38 1127.88,-360.38 1127.88,-396.38"/>
<text xml:space="preserve" text-anchor="middle" x="1063.62" y="-374.5" font-family="Times New Roman,serif" font-size="10.00">generate_powershell_script</text>
</g>
<!-- SST_ENV_MANAGER_process -->
<g id="node22" class="node">
<title>SST_ENV_MANAGER_process</title>
<polygon fill="lightgray" stroke="black" points="1151.62,-284.38 1097.62,-284.38 1097.62,-248.38 1151.62,-248.38 1151.62,-284.38"/>
<text xml:space="preserve" text-anchor="middle" x="1124.62" y="-262.5" font-family="Times New Roman,serif" font-size="10.00">process</text>
</g>
<!-- SST_ENV_MANAGER_default_install_dir -->
<g id="node23" class="node">
<title>SST_ENV_MANAGER_default_install_dir</title>
<polygon fill="lightgray" stroke="black" points="936.5,-284.38 844.75,-284.38 844.75,-248.38 936.5,-248.38 936.5,-284.38"/>
<text xml:space="preserve" text-anchor="middle" x="890.62" y="-262.5" font-family="Times New Roman,serif" font-size="10.00">default_install_dir</text>
</g>
<!-- SST_INNO_GENERATOR_make -->
<g id="node24" class="node">
<title>SST_INNO_GENERATOR_make</title>
<polygon fill="lightcoral" stroke="black" points="572.44,-699.88 518.44,-699.88 518.44,-663.88 572.44,-663.88 572.44,-699.88"/>
<text xml:space="preserve" text-anchor="middle" x="545.44" y="-678" font-family="Times New Roman,serif" font-size="10.00">make</text>
</g>
<!-- SST_INNO_GENERATOR_manifest -->
<g id="node25" class="node">
<title>SST_INNO_GENERATOR_manifest</title>
<polygon fill="lightgray" stroke="black" points="650.44,-699.88 596.44,-699.88 596.44,-663.88 650.44,-663.88 650.44,-699.88"/>
<text xml:space="preserve" text-anchor="middle" x="623.44" y="-678" font-family="Times New Roman,serif" font-size="10.00">manifest</text>
</g>
<!-- SST_INNO_GENERATOR_install_directory -->
<g id="node26" class="node">
<title>SST_INNO_GENERATOR_install_directory</title>
<polygon fill="lightgray" stroke="black" points="757.19,-477.88 673.69,-477.88 673.69,-441.88 757.19,-441.88 757.19,-477.88"/>
<text xml:space="preserve" text-anchor="middle" x="715.44" y="-456" font-family="Times New Roman,serif" font-size="10.00">install_directory</text>
</g>
<!-- SST_INNO_GENERATOR_inno_compiler_path -->
<g id="node27" class="node">
<title>SST_INNO_GENERATOR_inno_compiler_path</title>
<polygon fill="lightgray" stroke="black" points="695.06,-417.88 595.81,-417.88 595.81,-381.88 695.06,-381.88 695.06,-417.88"/>
<text xml:space="preserve" text-anchor="middle" x="645.44" y="-396" font-family="Times New Roman,serif" font-size="10.00">inno_compiler_path</text>
</g>
<!-- SST_INNO_GENERATOR_last_error -->
<g id="node28" class="node">
<title>SST_INNO_GENERATOR_last_error</title>
<polygon fill="lightgray" stroke="black" points="374.56,-693.88 320.31,-693.88 320.31,-657.88 374.56,-657.88 374.56,-693.88"/>
<text xml:space="preserve" text-anchor="middle" x="347.44" y="-672" font-family="Times New Roman,serif" font-size="10.00">last_error</text>
</g>
<!-- SST_INNO_GENERATOR_is_inno_available -->
<g id="node29" class="node">
<title>SST_INNO_GENERATOR_is_inno_available</title>
<polygon fill="lightcoral" stroke="black" points="523.19,-411.88 433.69,-411.88 433.69,-375.88 523.19,-375.88 523.19,-411.88"/>
<text xml:space="preserve" text-anchor="middle" x="478.44" y="-390" font-family="Times New Roman,serif" font-size="10.00">is_inno_available</text>
</g>
<!-- SST_INNO_GENERATOR_set_install_directory -->
<g id="node30" class="node">
<title>SST_INNO_GENERATOR_set_install_directory</title>
<polygon fill="lightcoral" stroke="black" points="654.44,-531.88 554.44,-531.88 554.44,-495.88 654.44,-495.88 654.44,-531.88"/>
<text xml:space="preserve" text-anchor="middle" x="604.44" y="-510" font-family="Times New Roman,serif" font-size="10.00">set_install_directory</text>
</g>
<!-- SST_INNO_GENERATOR_generate -->
<g id="node31" class="node">
<title>SST_INNO_GENERATOR_generate</title>
<polygon fill="lightcoral" stroke="black" points="770.44,-411.88 716.44,-411.88 716.44,-375.88 770.44,-375.88 770.44,-411.88"/>
<text xml:space="preserve" text-anchor="middle" x="743.44" y="-390" font-family="Times New Roman,serif" font-size="10.00">generate</text>
</g>
<!-- SST_INNO_GENERATOR_generate_script_content -->
<g id="node32" class="node">
<title>SST_INNO_GENERATOR_generate_script_content</title>
<polygon fill="lightcoral" stroke="black" points="572.56,-471.88 458.31,-471.88 458.31,-435.88 572.56,-435.88 572.56,-471.88"/>
<text xml:space="preserve" text-anchor="middle" x="515.44" y="-450" font-family="Times New Roman,serif" font-size="10.00">generate_script_content</text>
</g>
<!-- SST_INNO_GENERATOR_compile_installer -->
<g id="node33" class="node">
<title>SST_INNO_GENERATOR_compile_installer</title>
<polygon fill="lightcoral" stroke="black" points="485.06,-639.88 397.81,-639.88 397.81,-603.88 485.06,-603.88 485.06,-639.88"/>
<text xml:space="preserve" text-anchor="middle" x="441.44" y="-618" font-family="Times New Roman,serif" font-size="10.00">compile_installer</text>
</g>
<!-- SST_INNO_GENERATOR_generate_header -->
<g id="node34" class="node">
<title>SST_INNO_GENERATOR_generate_header</title>
<polygon fill="lightcoral" stroke="black" points="456.81,-351.88 374.06,-351.88 374.06,-315.88 456.81,-315.88 456.81,-351.88"/>
<text xml:space="preserve" text-anchor="middle" x="415.44" y="-330" font-family="Times New Roman,serif" font-size="10.00">generate_header</text>
</g>
<!-- SST_INNO_GENERATOR_generate_languages -->
<g id="node35" class="node">
<title>SST_INNO_GENERATOR_generate_languages</title>
<polygon fill="lightcoral" stroke="black" points="530.94,-579.88 433.94,-579.88 433.94,-543.88 530.94,-543.88 530.94,-579.88"/>
<text xml:space="preserve" text-anchor="middle" x="482.44" y="-558" font-family="Times New Roman,serif" font-size="10.00">generate_languages</text>
</g>
<!-- SST_INNO_GENERATOR_generate_tasks -->
<g id="node36" class="node">
<title>SST_INNO_GENERATOR_generate_tasks</title>
<polygon fill="lightcoral" stroke="black" points="414.44,-459.88 338.44,-459.88 338.44,-423.88 414.44,-423.88 414.44,-459.88"/>
<text xml:space="preserve" text-anchor="middle" x="376.44" y="-438" font-family="Times New Roman,serif" font-size="10.00">generate_tasks</text>
</g>
<!-- SST_INNO_GENERATOR_generate_files -->
<g id="node37" class="node">
<title>SST_INNO_GENERATOR_generate_files</title>
<polygon fill="lightcoral" stroke="black" points="434.94,-519.88 361.94,-519.88 361.94,-483.88 434.94,-483.88 434.94,-519.88"/>
<text xml:space="preserve" text-anchor="middle" x="398.44" y="-498" font-family="Times New Roman,serif" font-size="10.00">generate_files</text>
</g>
<!-- SST_INNO_GENERATOR_generate_icons -->
<g id="node38" class="node">
<title>SST_INNO_GENERATOR_generate_icons</title>
<polygon fill="lightcoral" stroke="black" points="751.19,-651.88 673.69,-651.88 673.69,-615.88 751.19,-615.88 751.19,-651.88"/>
<text xml:space="preserve" text-anchor="middle" x="712.44" y="-630" font-family="Times New Roman,serif" font-size="10.00">generate_icons</text>
</g>
<!-- SST_INNO_GENERATOR_generate_registry -->
<g id="node39" class="node">
<title>SST_INNO_GENERATOR_generate_registry</title>
<polygon fill="lightcoral" stroke="black" points="748.69,-351.88 662.19,-351.88 662.19,-315.88 748.69,-315.88 748.69,-351.88"/>
<text xml:space="preserve" text-anchor="middle" x="705.44" y="-330" font-family="Times New Roman,serif" font-size="10.00">generate_registry</text>
</g>
<!-- SST_INNO_GENERATOR_generate_run -->
<g id="node40" class="node">
<title>SST_INNO_GENERATOR_generate_run</title>
<polygon fill="lightcoral" stroke="black" points="587.06,-297.88 517.81,-297.88 517.81,-261.88 587.06,-261.88 587.06,-297.88"/>
<text xml:space="preserve" text-anchor="middle" x="552.44" y="-276" font-family="Times New Roman,serif" font-size="10.00">generate_run</text>
</g>
<!-- SST_INNO_GENERATOR_generate_code -->
<g id="node41" class="node">
<title>SST_INNO_GENERATOR_generate_code</title>
<polygon fill="lightcoral" stroke="black" points="413.06,-579.88 337.81,-579.88 337.81,-543.88 413.06,-543.88 413.06,-579.88"/>
<text xml:space="preserve" text-anchor="middle" x="375.44" y="-558" font-family="Times New Roman,serif" font-size="10.00">generate_code</text>
</g>
<!-- SST_INNO_GENERATOR_header_template -->
<g id="node42" class="node">
<title>SST_INNO_GENERATOR_header_template</title>
<polygon fill="lightgray" stroke="black" points="589.19,-639.88 505.69,-639.88 505.69,-603.88 589.19,-603.88 589.19,-639.88"/>
<text xml:space="preserve" text-anchor="middle" x="547.44" y="-618" font-family="Times New Roman,serif" font-size="10.00">header_template</text>
</g>
<!-- SST_INNO_GENERATOR_app_guid -->
<g id="node43" class="node">
<title>SST_INNO_GENERATOR_app_guid</title>
<polygon fill="lightgray" stroke="black" points="662.94,-291.88 607.94,-291.88 607.94,-255.88 662.94,-255.88 662.94,-291.88"/>
<text xml:space="preserve" text-anchor="middle" x="635.44" y="-270" font-family="Times New Roman,serif" font-size="10.00">app_guid</text>
</g>
<!-- SST_INNO_GENERATOR_process -->
<g id="node44" class="node">
<title>SST_INNO_GENERATOR_process</title>
<polygon fill="lightgray" stroke="black" points="740.44,-291.88 686.44,-291.88 686.44,-255.88 740.44,-255.88 740.44,-291.88"/>
<text xml:space="preserve" text-anchor="middle" x="713.44" y="-270" font-family="Times New Roman,serif" font-size="10.00">process</text>
</g>
<!-- SST_INNO_GENERATOR_default_install_dir -->
<g id="node45" class="node">
<title>SST_INNO_GENERATOR_default_install_dir</title>
<polygon fill="lightgray" stroke="black" points="639.31,-357.88 547.56,-357.88 547.56,-321.88 639.31,-321.88 639.31,-357.88"/>
<text xml:space="preserve" text-anchor="middle" x="593.44" y="-336" font-family="Times New Roman,serif" font-size="10.00">default_install_dir</text>
</g>
<!-- SST_INNO_GENERATOR_detect_inno_setup -->
<g id="node46" class="node">
<title>SST_INNO_GENERATOR_detect_inno_setup</title>
<polygon fill="lightcoral" stroke="black" points="705.31,-591.88 613.56,-591.88 613.56,-555.88 705.31,-555.88 705.31,-591.88"/>
<text xml:space="preserve" text-anchor="middle" x="659.44" y="-570" font-family="Times New Roman,serif" font-size="10.00">detect_inno_setup</text>
</g>
<!-- SST_INSTALLER_make -->
<g id="node47" class="node">
<title>SST_INSTALLER_make</title>
<polygon fill="lightcoral" stroke="black" points="885.94,-865.87 831.94,-865.87 831.94,-829.87 885.94,-829.87 885.94,-865.87"/>
<text xml:space="preserve" text-anchor="middle" x="858.94" y="-844" font-family="Times New Roman,serif" font-size="10.00">make</text>
</g>
<!-- SST_INSTALLER_manifest -->
<g id="node48" class="node">
<title>SST_INSTALLER_manifest</title>
<polygon fill="lightgray" stroke="black" points="969.94,-643.87 915.94,-643.87 915.94,-607.87 969.94,-607.87 969.94,-643.87"/>
<text xml:space="preserve" text-anchor="middle" x="942.94" y="-622" font-family="Times New Roman,serif" font-size="10.00">manifest</text>
</g>
<!-- SST_INSTALLER_install_directory -->
<g id="node49" class="node">
<title>SST_INSTALLER_install_directory</title>
<polygon fill="lightgray" stroke="black" points="992.69,-859.87 909.19,-859.87 909.19,-823.87 992.69,-823.87 992.69,-859.87"/>
<text xml:space="preserve" text-anchor="middle" x="950.94" y="-838" font-family="Times New Roman,serif" font-size="10.00">install_directory</text>
</g>
<!-- SST_INSTALLER_last_error -->
<g id="node50" class="node">
<title>SST_INSTALLER_last_error</title>
<polygon fill="lightgray" stroke="black" points="1138.06,-655.87 1083.81,-655.87 1083.81,-619.87 1138.06,-619.87 1138.06,-655.87"/>
<text xml:space="preserve" text-anchor="middle" x="1110.94" y="-634" font-family="Times New Roman,serif" font-size="10.00">last_error</text>
</g>
<!-- SST_INSTALLER_set_install_directory -->
<g id="node51" class="node">
<title>SST_INSTALLER_set_install_directory</title>
<polygon fill="palegreen" stroke="black" points="1117.94,-823.87 1017.94,-823.87 1017.94,-787.87 1117.94,-787.87 1117.94,-823.87"/>
<text xml:space="preserve" text-anchor="middle" x="1067.94" y="-802" font-family="Times New Roman,serif" font-size="10.00">set_install_directory</text>
</g>
<!-- SST_INSTALLER_is_installed -->
<g id="node52" class="node">
<title>SST_INSTALLER_is_installed</title>
<polygon fill="lightcoral" stroke="black" points="1062.56,-655.87 999.31,-655.87 999.31,-619.87 1062.56,-619.87 1062.56,-655.87"/>
<text xml:space="preserve" text-anchor="middle" x="1030.94" y="-634" font-family="Times New Roman,serif" font-size="10.00">is_installed</text>
</g>
<!-- SST_INSTALLER_is_git_available -->
<g id="node53" class="node">
<title>SST_INSTALLER_is_git_available</title>
<polygon fill="lightcoral" stroke="black" points="979.94,-703.87 897.94,-703.87 897.94,-667.87 979.94,-667.87 979.94,-703.87"/>
<text xml:space="preserve" text-anchor="middle" x="938.94" y="-682" font-family="Times New Roman,serif" font-size="10.00">is_git_available</text>
</g>
<!-- SST_INSTALLER_install_path -->
<g id="node54" class="node">
<title>SST_INSTALLER_install_path</title>
<polygon fill="lightcoral" stroke="black" points="1142.31,-883.87 1077.56,-883.87 1077.56,-847.87 1142.31,-847.87 1142.31,-883.87"/>
<text xml:space="preserve" text-anchor="middle" x="1109.94" y="-862" font-family="Times New Roman,serif" font-size="10.00">install_path</text>
</g>
<!-- SST_INSTALLER_install -->
<g id="node55" class="node">
<title>SST_INSTALLER_install</title>
<polygon fill="lightcoral" stroke="black" points="1053.94,-919.87 999.94,-919.87 999.94,-883.87 1053.94,-883.87 1053.94,-919.87"/>
<text xml:space="preserve" text-anchor="middle" x="1026.94" y="-898" font-family="Times New Roman,serif" font-size="10.00">install</text>
</g>
<!-- SST_INSTALLER_update -->
<g id="node56" class="node">
<title>SST_INSTALLER_update</title>
<polygon fill="lightcoral" stroke="black" points="975.94,-919.87 921.94,-919.87 921.94,-883.87 975.94,-883.87 975.94,-919.87"/>
<text xml:space="preserve" text-anchor="middle" x="948.94" y="-898" font-family="Times New Roman,serif" font-size="10.00">update</text>
</g>
<!-- SST_INSTALLER_uninstall -->
<g id="node57" class="node">
<title>SST_INSTALLER_uninstall</title>
<polygon fill="lightcoral" stroke="black" points="897.94,-925.88 843.94,-925.88 843.94,-889.88 897.94,-889.88 897.94,-925.88"/>
<text xml:space="preserve" text-anchor="middle" x="870.94" y="-904" font-family="Times New Roman,serif" font-size="10.00">uninstall</text>
</g>
<!-- SST_INSTALLER_install_all -->
<g id="node58" class="node">
<title>SST_INSTALLER_install_all</title>
<polygon fill="lightcoral" stroke="black" points="900.56,-799.87 843.31,-799.87 843.31,-763.87 900.56,-763.87 900.56,-799.87"/>
<text xml:space="preserve" text-anchor="middle" x="871.94" y="-778" font-family="Times New Roman,serif" font-size="10.00">install_all</text>
</g>
<!-- SST_INSTALLER_process -->
<g id="node59" class="node">
<title>SST_INSTALLER_process</title>
<polygon fill="lightgray" stroke="black" points="891.94,-643.87 837.94,-643.87 837.94,-607.87 891.94,-607.87 891.94,-643.87"/>
<text xml:space="preserve" text-anchor="middle" x="864.94" y="-622" font-family="Times New Roman,serif" font-size="10.00">process</text>
</g>
<!-- SST_INSTALLER_default_install_dir -->
<g id="node60" class="node">
<title>SST_INSTALLER_default_install_dir</title>
<polygon fill="lightgray" stroke="black" points="1144.81,-715.87 1053.06,-715.87 1053.06,-679.87 1144.81,-679.87 1144.81,-715.87"/>
<text xml:space="preserve" text-anchor="middle" x="1098.94" y="-694" font-family="Times New Roman,serif" font-size="10.00">default_install_dir</text>
</g>
<!-- SST_INSTALLER_dependencies_satisfied -->
<g id="node61" class="node">
<title>SST_INSTALLER_dependencies_satisfied</title>
<polygon fill="lightcoral" stroke="black" points="1032.19,-763.87 921.69,-763.87 921.69,-727.87 1032.19,-727.87 1032.19,-763.87"/>
<text xml:space="preserve" text-anchor="middle" x="976.94" y="-742" font-family="Times New Roman,serif" font-size="10.00">dependencies_satisfied</text>
</g>
<!-- SST_LIBRARY_INFO_make -->
<g id="node62" class="node">
<title>SST_LIBRARY_INFO_make</title>
<polygon fill="palegreen" stroke="black" points="308.38,-931.87 254.38,-931.87 254.38,-895.87 308.38,-895.87 308.38,-931.87"/>
<text xml:space="preserve" text-anchor="middle" x="281.38" y="-910" font-family="Times New Roman,serif" font-size="10.00">make</text>
</g>
<!-- SST_LIBRARY_INFO_name -->
<g id="node63" class="node">
<title>SST_LIBRARY_INFO_name</title>
<polygon fill="lightgray" stroke="black" points="326.38,-1159.87 272.38,-1159.87 272.38,-1123.87 326.38,-1123.87 326.38,-1159.87"/>
<text xml:space="preserve" text-anchor="middle" x="299.38" y="-1138" font-family="Times New Roman,serif" font-size="10.00">name</text>
</g>
<!-- SST_LIBRARY_INFO_description -->
<g id="node64" class="node">
<title>SST_LIBRARY_INFO_description</title>
<polygon fill="lightgray" stroke="black" points="231.25,-967.87 169.5,-967.87 169.5,-931.87 231.25,-931.87 231.25,-967.87"/>
<text xml:space="preserve" text-anchor="middle" x="200.37" y="-946" font-family="Times New Roman,serif" font-size="10.00">description</text>
</g>
<!-- SST_LIBRARY_INFO_layer -->
<g id="node65" class="node">
<title>SST_LIBRARY_INFO_layer</title>
<polygon fill="lightgray" stroke="black" points="386.37,-931.87 332.37,-931.87 332.37,-895.87 386.37,-895.87 386.37,-931.87"/>
<text xml:space="preserve" text-anchor="middle" x="359.37" y="-910" font-family="Times New Roman,serif" font-size="10.00">layer</text>
</g>
<!-- SST_LIBRARY_INFO_github_url -->
<g id="node66" class="node">
<title>SST_LIBRARY_INFO_github_url</title>
<polygon fill="lightgray" stroke="black" points="265.12,-1099.87 205.62,-1099.87 205.62,-1063.87 265.12,-1063.87 265.12,-1099.87"/>
<text xml:space="preserve" text-anchor="middle" x="235.37" y="-1078" font-family="Times New Roman,serif" font-size="10.00">github_url</text>
</g>
<!-- SST_LIBRARY_INFO_dependencies -->
<g id="node67" class="node">
<title>SST_LIBRARY_INFO_dependencies</title>
<polygon fill="lightgray" stroke="black" points="385.12,-991.88 313.62,-991.88 313.62,-955.88 385.12,-955.88 385.12,-991.88"/>
<text xml:space="preserve" text-anchor="middle" x="349.37" y="-970" font-family="Times New Roman,serif" font-size="10.00">dependencies</text>
</g>
<!-- SST_LIBRARY_INFO_tags -->
<g id="node68" class="node">
<title>SST_LIBRARY_INFO_tags</title>
<polygon fill="lightgray" stroke="black" points="404.37,-1147.88 350.37,-1147.88 350.37,-1111.88 404.37,-1111.88 404.37,-1147.88"/>
<text xml:space="preserve" text-anchor="middle" x="377.37" y="-1126" font-family="Times New Roman,serif" font-size="10.00">tags</text>
</g>
<!-- SST_LIBRARY_INFO_env_var_name -->
<g id="node69" class="node">
<title>SST_LIBRARY_INFO_env_var_name</title>
<polygon fill="lightcoral" stroke="black" points="366.37,-1087.87 290.37,-1087.87 290.37,-1051.87 366.37,-1051.87 366.37,-1087.87"/>
<text xml:space="preserve" text-anchor="middle" x="328.37" y="-1066" font-family="Times New Roman,serif" font-size="10.00">env_var_name</text>
</g>
<!-- SST_LIBRARY_INFO_ecf_name -->
<g id="node70" class="node">
<title>SST_LIBRARY_INFO_ecf_name</title>
<polygon fill="lightcoral" stroke="black" points="248.87,-1159.87 193.87,-1159.87 193.87,-1123.87 248.87,-1123.87 248.87,-1159.87"/>
<text xml:space="preserve" text-anchor="middle" x="221.37" y="-1138" font-family="Times New Roman,serif" font-size="10.00">ecf_name</text>
</g>
<!-- SST_LIBRARY_INFO_add_dependency -->
<g id="node71" class="node">
<title>SST_LIBRARY_INFO_add_dependency</title>
<polygon fill="lightcoral" stroke="black" points="291.25,-1027.88 205.5,-1027.88 205.5,-991.88 291.25,-991.88 291.25,-1027.88"/>
<text xml:space="preserve" text-anchor="middle" x="248.37" y="-1006" font-family="Times New Roman,serif" font-size="10.00">add_dependency</text>
</g>
<!-- SST_LIBRARY_INFO_add_tag -->
<g id="node72" class="node">
<title>SST_LIBRARY_INFO_add_tag</title>
<polygon fill="lightcoral" stroke="black" points="182.37,-1099.87 128.37,-1099.87 128.37,-1063.87 182.37,-1063.87 182.37,-1099.87"/>
<text xml:space="preserve" text-anchor="middle" x="155.37" y="-1078" font-family="Times New Roman,serif" font-size="10.00">add_tag</text>
</g>
<!-- SST_MANIFEST_make -->
<g id="node73" class="node">
<title>SST_MANIFEST_make</title>
<polygon fill="lightcoral" stroke="black" points="72.12,-761.88 18.12,-761.88 18.12,-725.88 72.12,-725.88 72.12,-761.88"/>
<text xml:space="preserve" text-anchor="middle" x="45.12" y="-740" font-family="Times New Roman,serif" font-size="10.00">make</text>
</g>
<!-- SST_MANIFEST_libraries -->
<g id="node74" class="node">
<title>SST_MANIFEST_libraries</title>
<polygon fill="lightgray" stroke="black" points="150.12,-515.88 96.12,-515.88 96.12,-479.88 150.12,-479.88 150.12,-515.88"/>
<text xml:space="preserve" text-anchor="middle" x="123.12" y="-494" font-family="Times New Roman,serif" font-size="10.00">libraries</text>
</g>
<!-- SST_MANIFEST_library_index -->
<g id="node75" class="node">
<title>SST_MANIFEST_library_index</title>
<polygon fill="lightgray" stroke="black" points="94.87,-701.88 23.37,-701.88 23.37,-665.88 94.87,-665.88 94.87,-701.88"/>
<text xml:space="preserve" text-anchor="middle" x="59.12" y="-680" font-family="Times New Roman,serif" font-size="10.00">library_index</text>
</g>
<!-- SST_MANIFEST_library_by_name -->
<g id="node76" class="node">
<title>SST_MANIFEST_library_by_name</title>
<polygon fill="lightcoral" stroke="black" points="235,-575.88 149.25,-575.88 149.25,-539.88 235,-539.88 235,-575.88"/>
<text xml:space="preserve" text-anchor="middle" x="192.12" y="-554" font-family="Times New Roman,serif" font-size="10.00">library_by_name</text>
</g>
<!-- SST_MANIFEST_libraries_by_layer -->
<g id="node77" class="node">
<title>SST_MANIFEST_libraries_by_layer</title>
<polygon fill="lightcoral" stroke="black" points="210.25,-677.88 120,-677.88 120,-641.88 210.25,-641.88 210.25,-677.88"/>
<text xml:space="preserve" text-anchor="middle" x="165.12" y="-656" font-family="Times New Roman,serif" font-size="10.00">libraries_by_layer</text>
</g>
<!-- SST_MANIFEST_default_install_dir -->
<g id="node78" class="node">
<title>SST_MANIFEST_default_install_dir</title>
<polygon fill="lightgray" stroke="black" points="127,-617.88 35.25,-617.88 35.25,-581.88 127,-581.88 127,-617.88"/>
<text xml:space="preserve" text-anchor="middle" x="81.12" y="-596" font-family="Times New Roman,serif" font-size="10.00">default_install_dir</text>
</g>
<!-- SST_MANIFEST_github_org -->
<g id="node79" class="node">
<title>SST_MANIFEST_github_org</title>
<polygon fill="lightgray" stroke="black" points="157,-761.88 95.25,-761.88 95.25,-725.88 157,-725.88 157,-761.88"/>
<text xml:space="preserve" text-anchor="middle" x="126.12" y="-740" font-family="Times New Roman,serif" font-size="10.00">github_org</text>
</g>
<!-- SST_MANIFEST_load_libraries -->
<g id="node80" class="node">
<title>SST_MANIFEST_load_libraries</title>
<polygon fill="lightcoral" stroke="black" points="72.25,-557.88 0,-557.88 0,-521.88 72.25,-521.88 72.25,-557.88"/>
<text xml:space="preserve" text-anchor="middle" x="36.12" y="-536" font-family="Times New Roman,serif" font-size="10.00">load_libraries</text>
</g>
<!-- SST_MANIFEST_add_library -->
<g id="node81" class="node">
<title>SST_MANIFEST_add_library</title>
<polygon fill="lightcoral" stroke="black" points="242.75,-737.88 179.5,-737.88 179.5,-701.88 242.75,-701.88 242.75,-737.88"/>
<text xml:space="preserve" text-anchor="middle" x="211.12" y="-716" font-family="Times New Roman,serif" font-size="10.00">add_library</text>
</g>
<!-- LIB_TESTS_test_manifest_make -->
<g id="node82" class="node">
<title>LIB_TESTS_test_manifest_make</title>
<polygon fill="lightgray" stroke="black" points="416.88,-163.88 319.88,-163.88 319.88,-127.88 416.88,-127.88 416.88,-163.88"/>
<text xml:space="preserve" text-anchor="middle" x="368.38" y="-142" font-family="Times New Roman,serif" font-size="10.00">test_manifest_make</text>
</g>
<!-- TEST_APP_make -->
<g id="node83" class="node">
<title>TEST_APP_make</title>
<polygon fill="lightcoral" stroke="black" points="250.87,-393.37 196.87,-393.37 196.87,-357.37 250.87,-357.37 250.87,-393.37"/>
<text xml:space="preserve" text-anchor="middle" x="223.87" y="-371.5" font-family="Times New Roman,serif" font-size="10.00">make</text>
</g>
<!-- TEST_APP_run_lib_tests -->
<g id="node84" class="node">
<title>TEST_APP_run_lib_tests</title>
<polygon fill="lightcoral" stroke="black" points="135.5,-283.38 66.25,-283.38 66.25,-247.38 135.5,-247.38 135.5,-283.38"/>
<text xml:space="preserve" text-anchor="middle" x="100.87" y="-261.5" font-family="Times New Roman,serif" font-size="10.00">run_lib_tests</text>
</g>
<!-- TEST_APP_lib_tests -->
<g id="node85" class="node">
<title>TEST_APP_lib_tests</title>
<polygon fill="lightgray" stroke="black" points="195.87,-338.38 141.87,-338.38 141.87,-302.38 195.87,-302.38 195.87,-338.38"/>
<text xml:space="preserve" text-anchor="middle" x="168.87" y="-316.5" font-family="Times New Roman,serif" font-size="10.00">lib_tests</text>
</g>
<!-- TEST_APP_passed -->
<g id="node86" class="node">
<title>TEST_APP_passed</title>
<polygon fill="lightgray" stroke="black" points="120.87,-343.38 66.87,-343.38 66.87,-307.38 120.87,-307.38 120.87,-343.38"/>
<text xml:space="preserve" text-anchor="middle" x="93.87" y="-321.5" font-family="Times New Roman,serif" font-size="10.00">passed</text>
</g>
<!-- TEST_APP_failed -->
<g id="node87" class="node">
<title>TEST_APP_failed</title>
<polygon fill="lightgray" stroke="black" points="210.87,-253.38 156.87,-253.38 156.87,-217.38 210.87,-217.38 210.87,-253.38"/>
<text xml:space="preserve" text-anchor="middle" x="183.87" y="-231.5" font-family="Times New Roman,serif" font-size="10.00">failed</text>
</g>
<!-- TEST_APP_run_test -->
<g id="node88" class="node">
<title>TEST_APP_run_test</title>
<polygon fill="lightcoral" stroke="black" points="85.87,-228.38 31.87,-228.38 31.87,-192.38 85.87,-192.38 85.87,-228.38"/>
<text xml:space="preserve" text-anchor="middle" x="58.87" y="-206.5" font-family="Times New Roman,serif" font-size="10.00">run_test</text>
</g>
<!-- legend_full -->
<g id="node89" class="node">
<title>legend_full</title>
<polygon fill="palegreen" stroke="black" points="746.25,-105 632,-105 632,-64 746.25,-64 746.25,-105"/>
<text xml:space="preserve" text-anchor="middle" x="689.12" y="-87.7" font-family="Times New Roman,serif" font-size="14.00">Full Contract</text>
<text xml:space="preserve" text-anchor="middle" x="689.12" y="-71.2" font-family="Times New Roman,serif" font-size="14.00">(require + ensure)</text>
</g>
<!-- legend_partial -->
<g id="node90" class="node">
<title>legend_partial</title>
<polygon fill="khaki" stroke="black" points="756.75,-41 639.5,-41 639.5,0 756.75,0 756.75,-41"/>
<text xml:space="preserve" text-anchor="middle" x="698.12" y="-23.7" font-family="Times New Roman,serif" font-size="14.00">Partial Contract</text>
<text xml:space="preserve" text-anchor="middle" x="698.12" y="-7.2" font-family="Times New Roman,serif" font-size="14.00">(require or ensure)</text>
</g>
<!-- legend_none -->
<g id="node91" class="node">
<title>legend_none</title>
<polygon fill="lightcoral" stroke="black" points="738.5,-163.5 655.75,-163.5 655.75,-127.5 738.5,-127.5 738.5,-163.5"/>
<text xml:space="preserve" text-anchor="middle" x="697.12" y="-140.45" font-family="Times New Roman,serif" font-size="14.00">No Contract</text>
</g>
<!-- legend_attr -->
<g id="node92" class="node">
<title>legend_attr</title>
<polygon fill="lightgray" stroke="black" points="632.5,-169 567.75,-169 567.75,-128 632.5,-128 632.5,-169"/>
<text xml:space="preserve" text-anchor="middle" x="600.12" y="-151.7" font-family="Times New Roman,serif" font-size="14.00">Attribute</text>
<text xml:space="preserve" text-anchor="middle" x="600.12" y="-135.2" font-family="Times New Roman,serif" font-size="14.00">(n/a)</text>
</g>
<!-- legend_stats -->
<g id="node93" class="node">
<title>legend_stats</title>
<polygon fill="white" stroke="black" points="604.25,-107 544,-107 544,0 610.25,0 610.25,-101 604.25,-107"/>
<polyline fill="none" stroke="black" points="604.25,-107 604.25,-101"/>
<polyline fill="none" stroke="black" points="610.25,-101 604.25,-101"/>
<text xml:space="preserve" text-anchor="middle" x="577.12" y="-89.7" font-family="Times New Roman,serif" font-size="14.00">Statistics</text>
<text xml:space="preserve" text-anchor="middle" x="577.12" y="-73.2" font-family="Times New Roman,serif" font-size="14.00">Full: 2</text>
<text xml:space="preserve" text-anchor="middle" x="577.12" y="-56.7" font-family="Times New Roman,serif" font-size="14.00">Partial: 0</text>
<text xml:space="preserve" text-anchor="middle" x="577.12" y="-40.2" font-family="Times New Roman,serif" font-size="14.00">None: 49</text>
<text xml:space="preserve" text-anchor="middle" x="577.12" y="-23.7" font-family="Times New Roman,serif" font-size="14.00">Attr: 37</text>
<text xml:space="preserve" text-anchor="middle" x="577.12" y="-7.2" font-family="Times New Roman,serif" font-size="14.00">Total: 88</text>
</g>
</g>
</svg>
