<?xml version="1.0" encoding="UTF-8" standalone="no"?>
<!DOCTYPE svg PUBLIC "-//W3C//DTD SVG 1.1//EN"
 "http://www.w3.org/Graphics/SVG/1.1/DTD/svg11.dtd">
<!-- Generated by graphviz version 14.1.1 (20251213.1925)
 -->
<!-- Title: Dependencies Pages: 1 -->
<svg width="347pt" height="645pt"
 viewBox="0.00 0.00 347.00 645.00" xmlns="http://www.w3.org/2000/svg" xmlns:xlink="http://www.w3.org/1999/xlink">
<g id="graph0" class="graph" transform="scale(1 1) rotate(0) translate(4 640.5)">
<title>Dependencies</title>
<polygon fill="white" stroke="none" points="-4,4 -4,-640.5 342.75,-640.5 342.75,4 -4,4"/>
<text xml:space="preserve" text-anchor="middle" x="169.38" y="-7.2" font-family="Times New Roman,serif" font-size="14.00">simple_setup &#45; Dependencies</text>
<!-- simple_setup -->
<g id="node1" class="node">
<title>simple_setup</title>
<polygon fill="lightblue" stroke="black" points="88,-348.5 0,-348.5 0,-312.5 88,-312.5 88,-348.5"/>
<text xml:space="preserve" text-anchor="middle" x="44" y="-325.45" font-family="Times New Roman,serif" font-size="14.00">simple_setup</text>
</g>
<!-- simple_console -->
<g id="node2" class="node">
<title>simple_console</title>
<polygon fill="lightblue" stroke="black" points="335.75,-636.5 235,-636.5 235,-600.5 335.75,-600.5 335.75,-636.5"/>
<text xml:space="preserve" text-anchor="middle" x="285.38" y="-613.45" font-family="Times New Roman,serif" font-size="14.00">simple_console</text>
</g>
<!-- simple_setup&#45;&gt;simple_console -->
<g id="edge1" class="edge">
<title>simple_setup&#45;&gt;simple_console</title>
<path fill="none" stroke="black" stroke-dasharray="5,2" d="M17.75,-348.95C17.75,-412.52 17.75,-618.5 17.75,-618.5 17.75,-618.5 223.21,-618.5 223.21,-618.5"/>
<polygon fill="black" stroke="black" points="223.21,-622 233.21,-618.5 223.21,-615 223.21,-622"/>
</g>
<!-- simple_env -->
<g id="node3" class="node">
<title>simple_env</title>
<polygon fill="lightblue" stroke="black" points="324.88,-564.5 245.88,-564.5 245.88,-528.5 324.88,-528.5 324.88,-564.5"/>
<text xml:space="preserve" text-anchor="middle" x="285.38" y="-541.45" font-family="Times New Roman,serif" font-size="14.00">simple_env</text>
</g>
<!-- simple_setup&#45;&gt;simple_env -->
<g id="edge2" class="edge">
<title>simple_setup&#45;&gt;simple_env</title>
<path fill="none" stroke="black" stroke-dasharray="5,2" d="M34.75,-348.92C34.75,-401.15 34.75,-546.5 34.75,-546.5 34.75,-546.5 233.87,-546.5 233.87,-546.5"/>
<polygon fill="black" stroke="black" points="233.87,-550 243.87,-546.5 233.87,-543 233.87,-550"/>
</g>
<!-- simple_json -->
<g id="node4" class="node">
<title>simple_json</title>
<polygon fill="lightblue" stroke="black" points="326.38,-492.5 244.38,-492.5 244.38,-456.5 326.38,-456.5 326.38,-492.5"/>
<text xml:space="preserve" text-anchor="middle" x="285.38" y="-469.45" font-family="Times New Roman,serif" font-size="14.00">simple_json</text>
</g>
<!-- simple_setup&#45;&gt;simple_json -->
<g id="edge3" class="edge">
<title>simple_setup&#45;&gt;simple_json</title>
<path fill="none" stroke="black" stroke-dasharray="5,2" d="M52.75,-348.74C52.75,-387.49 52.75,-474.5 52.75,-474.5 52.75,-474.5 232.54,-474.5 232.54,-474.5"/>
<polygon fill="black" stroke="black" points="232.54,-478 242.54,-474.5 232.54,-471 232.54,-478"/>
</g>
<!-- simple_process -->
<g id="node5" class="node">
<title>simple_process</title>
<polygon fill="lightblue" stroke="black" points="335.38,-420.5 235.38,-420.5 235.38,-384.5 335.38,-384.5 335.38,-420.5"/>
<text xml:space="preserve" text-anchor="middle" x="285.38" y="-397.45" font-family="Times New Roman,serif" font-size="14.00">simple_process</text>
</g>
<!-- simple_setup&#45;&gt;simple_process -->
<g id="edge4" class="edge">
<title>simple_setup&#45;&gt;simple_process</title>
<path fill="none" stroke="black" stroke-dasharray="5,2" d="M70.75,-348.67C70.75,-370 70.75,-402.5 70.75,-402.5 70.75,-402.5 223.54,-402.5 223.54,-402.5"/>
<polygon fill="black" stroke="black" points="223.54,-406 233.54,-402.5 223.54,-399 223.54,-406"/>
</g>
<!-- simple_template -->
<g id="node6" class="node">
<title>simple_template</title>
<polygon fill="lightblue" stroke="black" points="338.75,-348.5 232,-348.5 232,-312.5 338.75,-312.5 338.75,-348.5"/>
<text xml:space="preserve" text-anchor="middle" x="285.38" y="-325.45" font-family="Times New Roman,serif" font-size="14.00">simple_template</text>
</g>
<!-- simple_setup&#45;&gt;simple_template -->
<g id="edge5" class="edge">
<title>simple_setup&#45;&gt;simple_template</title>
<path fill="none" stroke="black" stroke-dasharray="5,2" d="M88.27,-330.5C88.27,-330.5 220.17,-330.5 220.17,-330.5"/>
<polygon fill="black" stroke="black" points="220.17,-334 230.17,-330.5 220.17,-327 220.17,-334"/>
</g>
<!-- simple_datetime -->
<g id="node7" class="node">
<title>simple_datetime</title>
<polygon fill="lightblue" stroke="black" points="338.75,-276.5 232,-276.5 232,-240.5 338.75,-240.5 338.75,-276.5"/>
<text xml:space="preserve" text-anchor="middle" x="285.38" y="-253.45" font-family="Times New Roman,serif" font-size="14.00">simple_datetime</text>
</g>
<!-- simple_setup&#45;&gt;simple_datetime -->
<g id="edge6" class="edge">
<title>simple_setup&#45;&gt;simple_datetime</title>
<path fill="none" stroke="black" stroke-dasharray="5,2" d="M70.75,-312.33C70.75,-291 70.75,-258.5 70.75,-258.5 70.75,-258.5 220.26,-258.5 220.26,-258.5"/>
<polygon fill="black" stroke="black" points="220.26,-262 230.26,-258.5 220.26,-255 220.26,-262"/>
</g>
<!-- simple_testing -->
<g id="node8" class="node">
<title>simple_testing</title>
<polygon fill="lightblue" stroke="black" points="333.12,-204.5 237.62,-204.5 237.62,-168.5 333.12,-168.5 333.12,-204.5"/>
<text xml:space="preserve" text-anchor="middle" x="285.38" y="-181.45" font-family="Times New Roman,serif" font-size="14.00">simple_testing</text>
</g>
<!-- simple_setup&#45;&gt;simple_testing -->
<g id="edge7" class="edge">
<title>simple_setup&#45;&gt;simple_testing</title>
<path fill="none" stroke="black" stroke-dasharray="5,2" d="M52.75,-312.26C52.75,-273.51 52.75,-186.5 52.75,-186.5 52.75,-186.5 225.66,-186.5 225.66,-186.5"/>
<polygon fill="black" stroke="black" points="225.66,-190 235.66,-186.5 225.66,-183 225.66,-190"/>
</g>
<!-- base -->
<g id="node9" class="node">
<title>base</title>
<polygon fill="lightgray" stroke="black" points="312.38,-132.5 258.38,-132.5 258.38,-96.5 312.38,-96.5 312.38,-132.5"/>
<text xml:space="preserve" text-anchor="middle" x="285.38" y="-109.45" font-family="Times New Roman,serif" font-size="14.00">base</text>
</g>
<!-- simple_setup&#45;&gt;base -->
<g id="edge8" class="edge">
<title>simple_setup&#45;&gt;base</title>
<path fill="none" stroke="black" stroke-dasharray="5,2" d="M34.75,-312.08C34.75,-259.85 34.75,-114.5 34.75,-114.5 34.75,-114.5 246.56,-114.5 246.56,-114.5"/>
<polygon fill="black" stroke="black" points="246.56,-118 256.56,-114.5 246.56,-111 246.56,-118"/>
</g>
<!-- testing -->
<g id="node10" class="node">
<title>testing</title>
<polygon fill="lightgray" stroke="black" points="312.38,-60.5 258.38,-60.5 258.38,-24.5 312.38,-24.5 312.38,-60.5"/>
<text xml:space="preserve" text-anchor="middle" x="285.38" y="-37.45" font-family="Times New Roman,serif" font-size="14.00">testing</text>
</g>
<!-- simple_setup&#45;&gt;testing -->
<g id="edge9" class="edge">
<title>simple_setup&#45;&gt;testing</title>
<path fill="none" stroke="black" stroke-dasharray="5,2" d="M17.75,-312.05C17.75,-248.48 17.75,-42.5 17.75,-42.5 17.75,-42.5 246.73,-42.5 246.73,-42.5"/>
<polygon fill="black" stroke="black" points="246.73,-46 256.73,-42.5 246.73,-39 246.73,-46"/>
</g>
</g>
</svg>
